<svg width="375" height="327" fill="none" xmlns="http://www.w3.org/2000/svg"><path d="M95.77 118.536a6.414 6.414 0 0 1 3.324-1.761 6.843 6.843 0 0 1 3.688.655 5.819 5.819 0 0 1 3.237 3.363c.291.772.427 1.593.4 2.418a6.271 6.271 0 0 1-.56 2.386l-3.354 7.876-22.028-9.419 2.915-6.741a7.44 7.44 0 0 1 3.572-4.003 5.5 5.5 0 0 1 4.782-.117 6.912 6.912 0 0 1 2.916 2.082 6.621 6.621 0 0 1 1.108 3.261Zm-3.951 4.775.408-.975a2.69 2.69 0 0 0 0-2.242 3.132 3.132 0 0 0-1.75-1.601 2.91 2.91 0 0 0-2.542-.163 2.92 2.92 0 0 0-1.7 1.895l-.262.626 5.846 2.46Zm9.126 3.888.554-1.456a2.726 2.726 0 0 0 0-2.213 3.307 3.307 0 0 0-1.822-1.573 2.836 2.836 0 0 0-3.568.587c-.286.33-.492.723-.602 1.146l-.422.975 5.86 2.534ZM116.281 107.575l-6.488 10.002-20.09-12.972 6.08-9.39 3.877 2.504-3.265 5.081 4.082 2.635 2.828-4.368 3.733 2.417-2.814 4.368 4.373 2.911 3.704-5.707 3.98 2.519ZM112.112 86.306a5.532 5.532 0 0 0-4.374 1.34c-.363.4-.57.916-.583 1.456a1.66 1.66 0 0 0 .481 1.325 4.64 4.64 0 0 0 3.601.393 28.907 28.907 0 0 1 4.112-.495 7.849 7.849 0 0 1 5.35 2.023 6.92 6.92 0 0 1 2.541 4.965 6.934 6.934 0 0 1-1.943 5.226 8.358 8.358 0 0 1-4.782 2.563l-4.228-3.742a6.71 6.71 0 0 0 2.763-.378 6.708 6.708 0 0 0 2.369-1.47c.451-.47.719-1.084.758-1.733a1.843 1.843 0 0 0-.612-1.456 4.237 4.237 0 0 0-3.368-.524 27.736 27.736 0 0 1-5.365.364 10.027 10.027 0 0 1-2.77-.626 7.658 7.658 0 0 1-2.187-1.354 5.947 5.947 0 0 1-2.129-4.47 6.941 6.941 0 0 1 1.939-4.877 9.103 9.103 0 0 1 3.98-2.504l4.447 3.975ZM125.554 71.89l-3.601 2.912L134.17 89.71l-3.995 3.275-12.202-14.879-3.674 3.014-2.916-3.625 11.255-9.186 2.916 3.581ZM161.869 75.269l-1.662 2.78-3.062-1.834a8.523 8.523 0 0 1-3.324 2.592 7.709 7.709 0 0 1-5.074.597 8.636 8.636 0 0 1-4.242-2.563 21.12 21.12 0 0 1-3.543-5.823c-1.807-4.106-2.386-7.372-1.735-9.798a7.523 7.523 0 0 1 4.476-5.154 7.753 7.753 0 0 1 5.03-.611 8.745 8.745 0 0 1 4.213 2.504 20.373 20.373 0 0 1 3.587 5.823c1.759 3.99 2.371 7.085 1.837 9.289l3.499 2.198Zm-8.092-4.368c-.7-1.718-1.239-2.911-1.589-3.8a40.655 40.655 0 0 0-2.391-4.833 4.514 4.514 0 0 0-1.895-1.732 2.63 2.63 0 0 0-3.267.971 2.622 2.622 0 0 0-.407 1.154c-.204 1.063.306 2.912 1.458 5.649a29.668 29.668 0 0 0 2.274 4.513 4.142 4.142 0 0 0 1.779 1.456 2.482 2.482 0 0 0 2.012 0 2.925 2.925 0 0 0 1.006-.713l-4.374-2.708 1.706-2.752 3.557 2.81.131-.015ZM177.569 64.366a6.925 6.925 0 0 1-.845 5.605 7.77 7.77 0 0 1-5.059 3.13 7.874 7.874 0 0 1-6.007-.7 7.583 7.583 0 0 1-3.178-5.095l-3.601-16.363 5.088-1.121 3.426 15.577a4.36 4.36 0 0 0 1.21 2.388 2.175 2.175 0 0 0 1.997.495 2.085 2.085 0 0 0 1.458-1.238 4.042 4.042 0 0 0 .117-2.46l-3.484-15.81 5.117-1.122 3.761 16.714ZM198.448 70.29l-5.059.117-.889-3.712-6.298.145-.788 3.757-5.059.116 6.284-24.05 5.248-.132 6.561 23.76Zm-6.779-7.38-2.362-10.41-2.26 10.41h4.622ZM211.409 72.46l-11.065-1.645 3.528-23.643 5.073.757-2.828 18.926 5.992.888-.7 4.717ZM220.564 50.285l4.971 1.456-6.444 22.959-4.986-1.456 6.459-22.959ZM242.871 63.45l-4.287-1.835-7.639 17.69-4.797-2.039 7.625-17.66-4.373-1.892 1.851-4.28 13.398 5.823-1.778 4.193ZM262.918 70.581l-11.795 8.211-5.831 8.852-4.374-2.81 5.832-8.822 2.157-14.559 4.665 3.057-1.589 7.993 6.575-4.717 4.36 2.795ZM137.406 249.593a6.36 6.36 0 0 1 1.006 3.625 6.944 6.944 0 0 1-1.458 3.45 5.66 5.66 0 0 1-1.737 1.638 5.658 5.658 0 0 1-2.258.779 6.28 6.28 0 0 1-4.665-1.208l-6.954-5.008 13.996-19.392 5.948 4.28a7.47 7.47 0 0 1 3.134 4.367c.207.802.23 1.639.068 2.45a5.495 5.495 0 0 1-1.001 2.238 6.877 6.877 0 0 1-2.682 2.359 6.51 6.51 0 0 1-3.397.422Zm-9.593 3.145 1.254.844a2.68 2.68 0 0 0 2.143.539 3.208 3.208 0 0 0 1.924-1.456 2.812 2.812 0 0 0 .73-2.414 2.808 2.808 0 0 0-1.502-2.027l-.861-.626-3.688 5.14Zm5.831-8.037.861.612a2.686 2.686 0 0 0 2.186.538 3.115 3.115 0 0 0 1.939-1.354 2.917 2.917 0 0 0 .213-3.633 2.921 2.921 0 0 0-.971-.865l-.554-.393-3.674 5.095ZM150.074 269.845l-10.789-5.125 10.307-21.575 10.104 4.804-1.998 4.222-5.467-2.606-2.085 4.367 4.68 2.228-1.91 4.004-4.679-2.228-2.275 4.732 6.153 2.911-2.041 4.266ZM170.894 258.417a5.598 5.598 0 0 0-3.062-3.334 2.262 2.262 0 0 0-1.604.117 1.616 1.616 0 0 0-.976 1.004 4.543 4.543 0 0 0 1.166 3.422 28.886 28.886 0 0 1 2.216 3.494c.407.847.663 1.758.758 2.693a7.667 7.667 0 0 1-.306 2.999 6.993 6.993 0 0 1-3.397 4.368 7.112 7.112 0 0 1-5.569.495 8.532 8.532 0 0 1-4.374-3.218l1.589-5.416a6.712 6.712 0 0 0 3.878 3.844 2.76 2.76 0 0 0 1.881-.073 1.824 1.824 0 0 0 1.093-1.194 4.145 4.145 0 0 0-.962-3.261 27.622 27.622 0 0 1-2.624-4.673 9.557 9.557 0 0 1-.612-2.781 7.435 7.435 0 0 1 .277-2.548 5.948 5.948 0 0 1 3.134-3.843 6.932 6.932 0 0 1 5.234-.335 9.063 9.063 0 0 1 3.98 2.504l-1.72 5.736ZM188.71 258.811l-4.636-.554-2.274 19.145-5.132-.612 2.274-19.1-4.723-.568.554-4.63 14.477 1.718-.54 4.601ZM219.428 275.232l-2.289 2.286-2.522-2.519a8.523 8.523 0 0 1-3.849 1.703 7.688 7.688 0 0 1-5.073-.655 8.616 8.616 0 0 1-3.455-3.494 20.695 20.695 0 0 1-2.012-6.493c-.758-4.44-.511-7.745.7-9.929a7.55 7.55 0 0 1 5.598-3.916 7.77 7.77 0 0 1 5.03.64 8.498 8.498 0 0 1 3.469 3.451 20.518 20.518 0 0 1 2.056 6.566c.729 4.367.569 7.454-.496 9.463l2.843 2.897Zm-6.779-6.202a221.82 221.82 0 0 0-.612-4.076 40.716 40.716 0 0 0-1.137-5.271 4.445 4.445 0 0 0-1.458-2.14 2.631 2.631 0 0 0-3.419.139 2.615 2.615 0 0 0-.678 1.026c-.452.975-.423 2.912 0 5.823a30.442 30.442 0 0 0 1.108 4.936 3.92 3.92 0 0 0 1.356 1.907 2.489 2.489 0 0 0 1.953.451c.41-.073.802-.226 1.152-.451l-3.557-3.683 2.318-2.257 2.77 3.596h.204ZM237.988 260.791a6.977 6.977 0 0 1 0 5.663 9.208 9.208 0 0 1-10.555 4.106 7.637 7.637 0 0 1-3.937-4.513l-6.094-15.607 4.855-1.907 5.832 14.835c.284.87.835 1.629 1.574 2.169a2.155 2.155 0 0 0 2.041.16c.325-.112.615-.304.844-.559.23-.254.391-.563.468-.897a3.912 3.912 0 0 0-.277-2.445l-5.948-15.054 4.87-1.922 6.327 15.971ZM260.892 254.529l-4.243 2.766-2.711-2.693-5.278 3.392 1.327 3.596-4.243 2.766-7.377-23.745 4.374-2.912 18.151 16.83Zm-9.681-2.766-7.566-7.585 3.688 10.089 3.878-2.504ZM273.47 242.75l-8.121 7.701-16.474-17.339 3.732-3.538 13.223 13.933 4.374-4.164 3.266 3.407ZM258.559 223.315l3.251-4.018 18.617 15.024-3.251 4.018-18.617-15.024ZM275.018 207.184l-2.391 3.989 16.576 9.885-2.653 4.368-16.533-9.856-2.449 4.076-4.009-2.402 7.479-12.506 3.98 2.446ZM277.073 188.871l10.628 9.652 9.928 3.698-1.793 4.819-9.914-3.698-14.695 1.136 1.953-5.212 8.15-.233-6.065-5.358 1.808-4.804Z" fill="#D92E15"/><path d="M50.852 154.949a140.214 140.214 0 0 1 29.74-78.107 140.529 140.529 0 0 1 68.932-47.376 140.715 140.715 0 0 1 83.68.154 140.532 140.532 0 0 1 68.756 47.63l21.285-6.596a27.255 27.255 0 0 0-7.735-14.145 27.317 27.317 0 0 0-14.381-7.314 27.366 27.366 0 0 1-12.586-5.72 27.313 27.313 0 0 1-8.175-11.139 27.339 27.339 0 0 0-12.663-14.055 27.398 27.398 0 0 0-18.769-2.483 27.403 27.403 0 0 1-13.798-.459 27.368 27.368 0 0 1-11.817-7.126 27.348 27.348 0 0 0-35.354-3.276 27.348 27.348 0 0 1-26.578 2.78 27.37 27.37 0 0 0-18.902-1.002 27.33 27.33 0 0 0-15.023 11.5 27.362 27.362 0 0 1-10.09 9.42 27.41 27.41 0 0 1-13.411 3.304A27.36 27.36 0 0 0 86.1 37.254a27.29 27.29 0 0 0-9.458 16.396 27.265 27.265 0 0 1-5.701 12.56 27.318 27.318 0 0 1-11.123 8.171 27.352 27.352 0 0 0-14.067 12.65 27.293 27.293 0 0 0-2.48 18.739 27.288 27.288 0 0 1-.47 13.772 27.323 27.323 0 0 1-7.14 11.793 27.282 27.282 0 0 0-7.72 14.157 27.26 27.26 0 0 0 1.625 16.037l21.286-6.58ZM154.158 44.391a125.183 125.183 0 0 1 71.479-.685 125.032 125.032 0 0 1 60.169 38.537l7.406-2.3a132.007 132.007 0 0 0-64.116-42.69 132.174 132.174 0 0 0-77.061.335 132.005 132.005 0 0 0-63.74 43.248 131.71 131.71 0 0 0-28.696 71.419l7.406-2.3a124.79 124.79 0 0 1 27.812-65.76 125.068 125.068 0 0 1 59.341-39.804ZM349.851 160.35l-.204-.306-18.019 5.576a140.206 140.206 0 0 1-28.048 81.926 140.526 140.526 0 0 1-70.859 49.895 140.713 140.713 0 0 1-86.695-1.13 140.514 140.514 0 0 1-69.53-51.725l-18.005 5.59v.364a27.301 27.301 0 0 0 6.314 17.819 27.372 27.372 0 0 0 16.385 9.464 27.378 27.378 0 0 1 12.574 5.698 27.333 27.333 0 0 1 8.187 11.102 27.31 27.31 0 0 0 12.656 14.05 27.365 27.365 0 0 0 18.761 2.474 27.394 27.394 0 0 1 13.801.464 27.357 27.357 0 0 1 11.815 7.136 27.375 27.375 0 0 0 35.295 3.305 27.38 27.38 0 0 1 26.578-2.766 27.403 27.403 0 0 0 18.902.988 27.36 27.36 0 0 0 15.023-11.5 27.347 27.347 0 0 1 10.085-9.411 27.398 27.398 0 0 1 13.402-3.298 27.379 27.379 0 0 0 17.847-6.302 27.305 27.305 0 0 0 9.474-16.366 27.311 27.311 0 0 1 5.677-12.573 27.365 27.365 0 0 1 11.103-8.202 27.323 27.323 0 0 0 14.078-12.635 27.267 27.267 0 0 0 2.484-18.739 27.266 27.266 0 0 1 7.61-25.579 27.292 27.292 0 0 0 8.178-17.05 27.277 27.277 0 0 0-4.869-18.269ZM230.202 289.441a132.216 132.216 0 0 0 65.72-45.839 131.923 131.923 0 0 0 27.119-75.332l-7.29 2.256a124.583 124.583 0 0 1-26.29 69.727 124.872 124.872 0 0 1-61.411 42.31 125.033 125.033 0 0 1-74.609-.212 124.866 124.866 0 0 1-61.17-42.657l-7.29 2.242a132.24 132.24 0 0 0 65.044 46.819 132.429 132.429 0 0 0 80.177.686ZM47.177 242.853l-4.272-4.892c-1.312 5.096-4.714 8.493-10.205 10.191-10.691 3.3-18.166-1.941-22.423-15.723l-8.966-28.928A25.309 25.309 0 0 1 0 194.839a15.999 15.999 0 0 1 1.458-6.377 14.098 14.098 0 0 1 3.528-4.367 20.877 20.877 0 0 1 4.374-2.912 35.5 35.5 0 0 1 4.534-1.805 33.626 33.626 0 0 1 5.832-1.296 16.275 16.275 0 0 1 4.767 0c1.325.211 2.62.572 3.863 1.077a10.118 10.118 0 0 1 3.164 2.155c.917.902 1.76 1.875 2.522 2.912a21.466 21.466 0 0 1 2.085 3.712 52.44 52.44 0 0 1 1.75 4.222 97.607 97.607 0 0 1 1.574 4.703l-14.098 4.367-1.647-5.285a9.412 9.412 0 0 0-1.152-2.533 2.918 2.918 0 0 0-1.458-1.194 3.536 3.536 0 0 0-1.297-.247c-.397.007-.79.076-1.167.204a5.579 5.579 0 0 0-1.939.961 3.49 3.49 0 0 0-.962 1.223 3.808 3.808 0 0 0 0 2.023c.124.868.294 1.728.51 2.577.219.786.583 2.024 1.108 3.698l8.019 25.827c.31.97.602 1.786.874 2.446.31.714.696 1.392 1.152 2.023a3.539 3.539 0 0 0 1.793 1.456 3.984 3.984 0 0 0 2.391-.087 2.996 2.996 0 0 0 2.42-2.65 16.438 16.438 0 0 0-1.006-5.823l-2.405-7.716-3.936 1.223-3.587-11.531 17.889-5.547 12.086 38.915-5.861 1.66ZM54.683 221.131l-15.25-49.033 14.375-4.368 14.886 47.651.087.305.554 1.704c.21.569.46 1.123.744 1.659.273.57.637 1.091 1.078 1.543.418.373.917.643 1.458.787a3.321 3.321 0 0 0 1.91 0 4.255 4.255 0 0 0 1.458-.772c.36-.328.618-.752.744-1.223.12-.448.203-.906.247-1.368a5.628 5.628 0 0 0-.16-1.602 24.998 24.998 0 0 0-.335-1.456c-.088-.32-.233-.815-.423-1.456l-.087-.291-14.944-47.868 14.36-4.441 15.177 49.048c1.944 6.086 1.944 11.137 0 15.156-1.944 4.018-5.977 6.968-12.1 8.851-6.24 1.941-11.29 1.801-15.148-.422-3.859-2.223-6.736-6.357-8.63-12.404ZM111.18 149.824l28.123 64.495-14.273 4.367-4.17-9.739-7.479 2.46 2.202 10.351-14.36 4.44-13.121-69.138 23.078-7.236Zm-7.144 16.015-1.341.422 7.96 32.64 5.292-1.63-11.911-31.432ZM150.222 177.645l9.432 30.398-14.958 4.63-20.731-66.781 22.685-7.017a17.68 17.68 0 0 1 6.254-.902c1.637.059 3.238.492 4.68 1.266a11.227 11.227 0 0 1 3.499 3.378 25.462 25.462 0 0 1 2.653 4.746 55.87 55.87 0 0 1 2.158 6.056c.379 1.267.685 2.3.889 3.101a19.66 19.66 0 0 1 .467 3.174 10.855 10.855 0 0 1-.161 3.378 9.238 9.238 0 0 1-1.457 3.057 10.553 10.553 0 0 1-2.916 2.912 8.244 8.244 0 0 1 3.849.349 6.008 6.008 0 0 1 2.711 1.936 15.594 15.594 0 0 1 1.662 2.533c.443.906.813 1.846 1.108 2.81 3.431 11.045 5.978 19.45 7.64 25.216l-14.448 4.469-8.077-26.031a8.163 8.163 0 0 0-1.093-2.387 2.235 2.235 0 0 0-1.575-.946 5.41 5.41 0 0 0-1.822 0c-.54.087-1.356.32-2.449.655Zm-7.377-24.066 3.863 12.462 3.703-1.15c1.944-.601 2.289-2.945 1.035-7.031-.845-2.708-1.764-4.368-2.77-4.834-1.006-.466-2.682-.408-5.03.32l-.801.233ZM194.54 124.055l28.123 64.523-14.288 4.368-4.097-9.725-7.479 2.315 2.202 10.351-14.36 4.367-13.121-69.138 23.02-7.061Zm-7.159 16.014-1.341.422 8.033 32.553 5.292-1.63-11.984-31.345ZM243.644 108.84l20.732 66.809-14.434 4.47-17.815-31.141 10.38 33.485-14.448 4.469-20.731-66.795 15.191-4.819 16.752 29.904-9.914-31.956 14.287-4.426ZM248.965 107.196l32.321-10.016 3.995 12.869-8.747 2.723 16.722 53.867-14.769 4.571-16.736-53.867-8.748 2.723-4.038-12.87ZM307.411 162.315 286.68 95.506l29.566-9.143 4.024 12.957-14.579 4.499 4.038 13.103 13.938-4.368 3.892 12.55-13.937 4.367 4.723 15.228 15.498-4.804 4.038 13.103-30.47 9.317ZM344.47 150.843l-20.732-66.795 29.566-9.157 4.024 12.957-14.579 4.498 4.053 13.103 13.938-4.368 3.892 12.535-13.937 4.368 4.723 15.228 15.498-4.804 4.038 13.103-30.484 9.332Z" fill="#D92E15"/><path d="m169.044 93.95 5.336 5.764 7.741-1.324-3.849 6.842 3.659 6.959-7.712-1.543-5.482 5.62-.918-7.789-7.042-3.48 7.129-3.29 1.138-7.76ZM192.501 92.055l3.791 4.09 5.496-.931-2.726 4.848 2.595 4.935-5.482-1.092-3.878 3.989-.656-5.532-5-2.46 5.059-2.33.801-5.517ZM148.619 105.641l3.776 4.091 5.51-.947-2.726 4.863 2.581 4.935-5.468-1.092-3.892 3.989-.656-5.532-4.986-2.475 5.059-2.329.802-5.503ZM210.913 228.877l-5.336-5.765-7.741 1.325 3.834-6.858-3.645-6.944 7.698 1.529 5.496-5.605.919 7.788 7.042 3.48-7.13 3.276-1.137 7.774ZM187.44 230.755l-3.776-4.077-5.496.932 2.726-4.862-2.595-4.921 5.467 1.092 3.893-3.989.656 5.532 5.001 2.46-5.059 2.33-.817 5.503ZM231.338 217.187l-3.791-4.091-5.496.932 2.726-4.848-2.595-4.935 5.482 1.092 3.892-3.989.642 5.532 5 2.46-5.059 2.33-.801 5.517Z" fill="#D92E15"/></svg>